<svg
    xmlns="http://www.w3.org/2000/svg" viewBox="0 0 357.24 340.6">
    <defs>
        <style>.a{fill:none;stroke:#fff;stroke-miterlimit:10;stroke-width:18.71px;}.b{fill:#fff;}</style>
    </defs>
    <title>AR-EN-whiteArtboard 1 copy 2</title>
    <circle class="a" cx="176.44" cy="170.3" r="116.72"/>
    <path class="b" d="M203.81,229.1q3.94,0,11.73-.77t11.62-.77q9.65,0,9.75,1.65-.76,1.64-8.11,5.8-15.35,8.56-20.28,10.64a57.46,57.46,0,0,1-22.36,4.49q-24.89,0-40.34-9.65-18.63-11.61-18.63-35,0-28.83,18.52-52.62-9.19-6.47-11.5-8.88a17.78,17.78,0,0,1-5.49-12.82,56.15,56.15,0,0,1,6.36-26q7.68-15.12,19.84-15.13,15.24,0,26,13.38a64.64,64.64,0,0,0-7.78-.55q-8.55,0-20.39,4.06-14.35,4.92-15,11.5,1.75,4.17,10.31,10.31t13.15,6.14q4.38,0,20.5-9.65,20.16-11.83,21.59-12.5l-6.47,22.15q-27.72,17.31-37.26,24.88-24.67,19.52-24.67,34.31Q134.86,229.1,203.81,229.1Z"/>
</svg>