<svg xmlns="http://www.w3.org/2000/svg" viewBox="0 0 1000 600"><defs><style>.a{fill:none;stroke:#fff;stroke-linecap:round;stroke-linejoin:round;stroke-width:20px;}.b{fill:#fff;}</style></defs><title>mesc-white-logoArtboard 1 copy 3</title><polygon class="a" points="883.55 416.66 812.32 457.03 809.45 308.25 880.68 267.87 883.55 416.66"/><polygon class="a" points="880.68 267.87 809.45 308.25 471.89 266.8 382.11 255.78 453.34 215.4 453.72 215.45 880.68 267.87"/><polygon class="a" points="812.32 457.03 436.41 410.87 384.99 404.56 382.11 255.78 471.89 266.8 809.45 308.25 812.32 457.03"/><path class="a" d="M453.34,215.4l-71.23,40.38L385,404.56l51.42,6.31c-4,5.1-7.41,8.87-9.32,10.9a178.85,178.85,0,0,1-21.18,19.45c-2.88,2.25-6.79,5.16-9.84,7.17-4.14,2.73-9.8,6.14-14.09,8.62a186.46,186.46,0,0,1-20.3,9.58c-3.87,1.48-9.08,3.35-13,4.57s-9,2.57-12.92,3.47a178.31,178.31,0,0,1-66.1,2.65c-7.64-1.12-13.66-2.55-16.23-3.16-7.06-1.67-13.92-4-14-4A178.66,178.66,0,0,1,221.21,463c-4.27-1.9-9.82-4.76-13.87-7.11-3.1-1.8-7.24-4.21-10.2-6.25-4.71-3.24-10.87-7.75-15.33-11.32-6.1-4.88-13.44-12.34-18.86-18a120.89,120.89,0,0,1-10.9-13.22c-2.71-3.91-6.4-9.08-8.93-13.12-2.18-3.49-4.83-8.3-6.75-11.93-2.17-4.12-4.72-9.8-6.51-14.1-1.61-3.87-3.35-9.19-4.79-13.12a112.44,112.44,0,0,1-4.09-15,252.59,252.59,0,0,1-4.09-28.44,153.07,153.07,0,0,1,.27-26.31c.57-4.68,1-11,2-15.59.88-4.18,1.89-9.78,3-13.91a143.09,143.09,0,0,1,4.47-14.79c1.52-3.88,3.41-9.12,5.1-12.93,1.89-4.22,4.6-9.77,6.82-13.82,2-3.58,4.74-8.26,7-11.67,2.59-3.93,6.13-9.12,9.12-12.75a235.49,235.49,0,0,1,17.66-19.42c3.43-3.24,8.19-7.35,11.85-10.32,2.85-2.32,6.77-5.26,9.83-7.31,4.1-2.74,9.68-6.22,13.94-8.72,2.7-1.58,6.4-3.53,9.23-4.86s6.47-3,9.28-4.21c2.34-1,5.53-2.2,7.91-3.1,3.89-1.48,9.2-3.11,13.21-4.22,2-.55,4.54-1.25,6.51-1.69,3.73-.83,8.72-1.87,12.48-2.55,2.8-.5,9.4-1.41,14.52-1.8a179.24,179.24,0,0,1,36.31.71c8.62,1.05,14.7,2.4,14.76,2.42,3.62.81,8.44,2,12,2.93,2.39.64,5.53,1.63,7.88,2.41,2.75.9,6.37,2.22,9.06,3.28s6.42,2.67,9.14,3.88,5.82,2.79,8.81,4.38l.09,0c1.46.77,2.88,1.54,4.19,2.25l.78.43c6.23,3.82,14.58,8.92,20.32,13.44,4,3.12,9.13,7.43,12.87,10.81,2.93,2.65,6.69,6.35,9.35,9.27,3.3,3.64,7.59,8.61,10.64,12.47,2.52,3.18,5.65,7.6,7.9,11,2.61,3.93,5.83,9.33,8.1,13.46l.47.86Z"/><path class="b" d="M316.45,375.43c0-17.09-.05-38.36-1.6-74.5-7.47,11.68-21.38,33.43-51,74.78-4.66-.22-10.87-.48-15.53-.77-11.21-15.27-30-40.84-46.66-79.39-1.89,17.37-4.48,41.17-1.09,74.24-4.42-.77-10.31-1.79-14.72-2.65-3.2-33.12-3-62.32,7.92-105.5,4.09.76,9.54,1.79,13.64,2.46,9.49,27.54,20.49,51.52,48.67,92.6,45.38-65.57,45.38-65.57,58.34-87.48,4.6-.28,10.74-.62,15.34-1,3.52,35,5.57,65,4.94,106-5.46.36-12.75.85-18.22,1.13"/><polyline class="b" points="487.81 305.95 418.18 297.4 419.59 370.3 489.22 378.85 489.01 368.08 432.18 361.1 431.74 338.74 485.7 345.36 485.49 334.59 431.54 327.96 431.18 309.73 488.02 316.71 487.81 305.95"/><path class="b" d="M624,322.67l-57.33-7a31.49,31.49,0,0,0-9.78.09,14.74,14.74,0,0,0-6.52,2.82,11.25,11.25,0,0,0-3.6,5.08,19.68,19.68,0,0,0-1,7l.08,4.24a22.52,22.52,0,0,0,1.29,7.29,16.66,16.66,0,0,0,3.81,6,21.11,21.11,0,0,0,6.66,4.43,34.81,34.81,0,0,0,9.83,2.5L607.26,360c5.65.69,8.51,3.29,8.6,7.77L616,377q.12,6.74-8.34,5.7l-58.86-7.23.21,10.76,58.86,7.23a31.25,31.25,0,0,0,9.79-.09,14.74,14.74,0,0,0,6.52-2.82,11.27,11.27,0,0,0,3.6-5.08,19.9,19.9,0,0,0,1-7l-.17-9a22.79,22.79,0,0,0-1.29-7.29,16.72,16.72,0,0,0-3.82-6,21.09,21.09,0,0,0-6.65-4.42,34.79,34.79,0,0,0-9.84-2.5l-39.82-4.89q-8.46-1-8.59-7.78l-.09-4.45q-.12-6.73,8.33-5.7l57.33,7L624,322.67"/><path class="b" d="M761.65,339.57l-54.54-6.7a31.55,31.55,0,0,0-9.79.09,14.7,14.7,0,0,0-6.51,2.82,11.25,11.25,0,0,0-3.6,5.08,19.67,19.67,0,0,0-1,7l.73,37.69a22.52,22.52,0,0,0,1.29,7.29,16.57,16.57,0,0,0,3.81,6,21.11,21.11,0,0,0,6.66,4.43,34.79,34.79,0,0,0,9.84,2.5l54.54,6.7-.21-10.76L708.31,395q-8.46-1-8.59-7.78L699,349.34q-.13-6.75,8.33-5.7l54.54,6.69-.21-10.76"/></svg>